HIERARCHY
ROOT root
{
	OFFSET	0	13.1	24.9
	CHANNELS 6  Xposition Yposition Zposition Xrotation Yrotation Zrotation
	JOINT spine_1
	{
		OFFSET	0	9.99999	0
		CHANNELS 3  Xrotation Yrotation Zrotation
		JOINT spine_2
		{
			OFFSET	0	112	-10
			CHANNELS 3  Xrotation Yrotation Zrotation
			JOINT spine_3
			{
				OFFSET	0	206.5	19.3
				CHANNELS 3  Xrotation Yrotation Zrotation
				JOINT spine_4
				{
					OFFSET	0	110.4	14.6
					CHANNELS 3  Xrotation Yrotation Zrotation
					JOINT neck_1
					{
						OFFSET	0	71.8	-50.3
						CHANNELS 3  Xrotation Yrotation Zrotation
						JOINT neck_2
						{
							OFFSET	0	86.2	-25.8
							CHANNELS 3  Xrotation Yrotation Zrotation
							JOINT head_ee
							{
								OFFSET	0	179.8	-8.7
								CHANNELS 3  Xrotation Yrotation Zrotation
								End Site
								{
									OFFSET	1	0	0
								}
							}
						}
					}
					JOINT left_clavicle
					{
						OFFSET	-43.2	22.4	-70.8
						CHANNELS 3  Xrotation Yrotation Zrotation
						JOINT left_shoulder
						{
							OFFSET	-93.9	-5.79999	48.7
							CHANNELS 3  Xrotation Yrotation Zrotation
							JOINT left_elbow
							{
								OFFSET	-291.4	-30.8	15.2
								CHANNELS 3  Xrotation Yrotation Zrotation
								JOINT left_lowarm_twist
								{
									OFFSET	-110.7	-3.89999	13.6
									CHANNELS 3  Xrotation Yrotation Zrotation
									JOINT left_hand
									{
										OFFSET	-110.7	-3.89999	13.6
										CHANNELS 3  Xrotation Yrotation Zrotation
										JOINT left_ee
										{
											OFFSET	-80.8	-5.10001	12.1
											CHANNELS 3  Xrotation Yrotation Zrotation
											End Site
											{
												OFFSET	1	0	0
											}
										}
									}
								}
							}
						}
					}
					JOINT right_clavicle
					{
						OFFSET	43.2	22.4	-70.8
						CHANNELS 3  Xrotation Yrotation Zrotation
						JOINT right_shoulder
						{
							OFFSET	93.9	-5.79999	48.7
							CHANNELS 3  Xrotation Yrotation Zrotation
							JOINT right_elbow
							{
								OFFSET	291.4	-30.8	15.2
								CHANNELS 3  Xrotation Yrotation Zrotation
								JOINT right_lowarm_twist
								{
									OFFSET	110.7	-3.89999	13.6
									CHANNELS 3  Xrotation Yrotation Zrotation
									JOINT right_hand
									{
										OFFSET	110.7	-3.89999	13.6
										CHANNELS 3  Xrotation Yrotation Zrotation
										JOINT right_ee
										{
											OFFSET	80.8	-5.10001	12.1
											CHANNELS 3  Xrotation Yrotation Zrotation
											End Site
											{
												OFFSET	1	0	0
											}
										}
									}
								}
							}
						}
					}
				}
			}
		}
	}
	JOINT left_hip
	{
		OFFSET	-82.8	-127.5	0.300001
		CHANNELS 3  Xrotation Yrotation Zrotation
		JOINT left_knee
		{
			OFFSET	-28.2	-396.7	2.2
			CHANNELS 3  Xrotation Yrotation Zrotation
			JOINT left_ankle
			{
				OFFSET	-11.7	-411.3	35.4
				CHANNELS 3  Xrotation Yrotation Zrotation
				JOINT left_toes
				{
					OFFSET	0	-60	-88.6
					CHANNELS 3  Xrotation Yrotation Zrotation
					JOINT left_foot_ee
					{
						OFFSET	-22.5	-16.5	-42.2
						CHANNELS 3  Xrotation Yrotation Zrotation
						End Site
						{
							OFFSET	1	0	0
						}
					}
				}
			}
		}
	}
	JOINT right_hip
	{
		OFFSET	82.8	-127.5	0.300001
		CHANNELS 3  Xrotation Yrotation Zrotation
		JOINT right_knee
		{
			OFFSET	28.2	-396.7	2.2
			CHANNELS 3  Xrotation Yrotation Zrotation
			JOINT right_ankle
			{
				OFFSET	11.7	-411.3	35.4
				CHANNELS 3  Xrotation Yrotation Zrotation
				JOINT right_toes
				{
					OFFSET	0	-60	-88.6
					CHANNELS 3  Xrotation Yrotation Zrotation
					JOINT right_foot_ee
					{
						OFFSET	22.5	-16.5	-42.2
						CHANNELS 3  Xrotation Yrotation Zrotation
						End Site
						{
							OFFSET	1	0	0
						}
					}
				}
			}
		}
	}
}
MOTION
Frames: 6
Frame Time: 0.02
1372.05 701.618 -1475.22 -8.90725073606 17.7906712229 0.842116235096 1.14886 0.47008 2.92548 1.15357 0.283054 2.94944 1.16918 -0.28317 2.94942 1.15709 0.185981 2.95714 -8.70303 16.9606 -0.0475524 -8.91509 31.84 3.98129 -0.0 0.0 -0.0 2.28562 13.8451 5.3615 4.89354 -23.0037 47.4033 2.05788 -45.5455 0.86398 -9.16255 -0.411449 1.09552 0.0649137 -6.48297 -2.3122 -0.0 0.0 -0.0 11.7309 1.69975 -23.4028 -32.4121 24.9375 -58.1125 0.201226 5.69265 -0.0100047 26.372 -0.164165 3.33521 0.633467 -15.4502 -10.2759 0.0 0.0 0.0 -4.34893 -12.907 9.906 -14.3872 0.320264 2.17888 42.6137 24.0951 -5.38118 -40.17 0.0 0.0 -0.0 0.0 -0.0 38.4493 -2.40354 -3.33685 -6.93364 -0.222758 -1.04015 -11.9436 2.42726 -1.8192 -1.22789 0.0 0.0 0.0 0.0 0.0 
1363.77621014 701.663 -1493.47307923 -9.07684249992 19.6069041894 1.58329909535 1.09486 0.482667 2.98175 1.09975 0.29204 3.00639 1.11623 -0.287963 3.00678 1.10366 0.190294 3.01453 -8.00149 17.258 -0.599782 -8.13191 32.6868 3.29564 -0.0 0.0 -0.0 2.47611 13.9982 5.68142 4.2568 -23.4756 47.3083 2.03697 -45.253 0.849089 -9.10576 -0.408363 1.08894 0.205363 -6.62006 -1.42229 -0.0 0.0 -0.0 11.6942 0.480186 -23.2417 -32.1466 25.3302 -58.0712 0.216695 6.12706 -0.0115975 26.8328 -0.153337 3.39307 0.574622 -16.0633 -10.1314 0.0 0.0 0.0 -5.19078 -13.1723 9.14855 -14.9142 0.321539 2.25972 42.5251 23.4681 -5.35305 -40.1192 0.0 0.0 -0.0 0.0 -0.0 38.689 -3.04778 -3.73436 -8.9736 -0.264163 -1.35043 -12.0905 4.11578 -1.85345 -1.11809 0.0 0.0 0.0 0.0 0.0 
1350.41188955 703.392 -1514.39404595 -9.32472386572 20.4361348905 1.80250928816 1.21828 0.532666 2.98766 1.22318 0.341562 3.01546 1.24219 -0.234365 3.02567 1.2295 0.246201 3.02473 -7.186 17.4327 -1.14167 -7.20503 33.2847 2.53876 -0.0 0.0 -0.0 2.46415 14.0888 5.66676 2.75511 -22.9537 47.5201 1.92879 -43.6908 0.773297 -9.11388 -0.408804 1.08988 0.304461 -6.22987 -0.587753 -0.0 0.0 -0.0 11.6777 -0.160152 -23.159 -31.9181 25.5382 -57.8495 0.230187 6.50538 -0.0130818 27.3916 -0.13958 3.46313 0.599848 -16.1609 -10.3249 0.0 0.0 0.0 -5.3628 -12.4275 8.63621 -15.4849 0.322082 2.34729 42.3794 23.1455 -5.32996 -40.1861 0.0 0.0 -0.0 0.0 -0.0 38.5054 -3.25752 -3.62715 -10.3654 -0.28606 -1.56287 -13.4613 6.0606 -2.08402 -1.03205 0.0 0.0 0.0 0.0 0.0 
1329.28550089 701.932 -1544.9280348 -9.10722287846 21.4115505665 1.44912178473 1.19303 0.53964 2.94204 1.19778 0.351422 2.97038 1.21705 -0.217453 2.98317 1.20472 0.256197 2.98009 -6.59912 17.1333 -0.895579 -6.54427 32.4706 2.53435 -0.0 0.0 -0.0 2.305 14.9583 5.45689 -0.0607315 -21.6717 48.6655 1.97089 -44.3087 0.802539 -8.83506 -0.393744 1.05755 0.348903 -7.08519 -0.65109 -0.0 0.0 -0.0 11.6675 -1.02523 -23.0686 -32.8327 26.0999 -57.2544 0.238451 6.73682 -0.0140347 27.4919 -0.137039 3.47569 0.42071 -15.2408 -8.8624 0.0 0.0 0.0 -5.56355 -10.4272 8.26313 -18.68 0.309011 2.83728 41.9928 21.2494 -5.24077 -39.2967 0.0 0.0 -0.0 0.0 -0.0 38.1826 -3.30452 -3.31072 -15.2073 -0.321927 -2.3047 -11.0818 8.62525 -1.73313 1.6553 -0.0 -0.0 0.0 0.0 0.0 
1314.71621534 705.764 -1563.7673463 -9.03986917704 21.3951781937 1.27720457202 1.19935 0.532856 2.81256 1.20368 0.35288 2.84073 1.22215 -0.191191 2.85616 1.21086 0.262098 2.85053 -5.73048 16.65 -0.827222 -5.57706 31.3981 2.2465 -0.0 0.0 -0.0 1.28464 15.3977 3.8547 -2.22077 -22.1077 51.7542 1.94636 -43.9501 0.785458 -8.30697 -0.365655 0.996126 0.442675 -4.21763 1.19489 -0.0 0.0 -0.0 11.6608 0.840528 -23.1956 -32.0076 25.3273 -57.4207 0.252337 7.12521 -0.0157104 29.988 -0.0667257 3.78676 0.504083 -17.5193 -10.2242 0.0 0.0 0.0 -4.54037 -7.93214 8.36756 -23.2489 0.24293 3.53504 36.9916 20.2769 -4.74701 -38.2273 0.0 0.0 -0.0 0.0 -0.0 37.561 -3.32177 -2.95926 -16.6554 -0.320466 -2.52686 -10.1623 11.7872 -1.61767 3.1411 -0.0 -0.0 0.0 0.0 0.0 
1316.73658638 705.764 -1565.04328025 -8.96291330918 20.1132589602 1.06004971237 1.19935 0.532856 2.81256 1.20368 0.35288 2.84073 1.22215 -0.191191 2.85616 1.21086 0.262098 2.85053 -5.73048 16.65 -0.827222 -5.57706 31.3981 2.2465 -0.0 0.0 -0.0 1.28464 15.3977 3.8547 -2.22077 -22.1077 51.7542 1.94636 -43.9501 0.785458 -8.30697 -0.365655 0.996126 0.442675 -4.21763 1.19489 -0.0 0.0 -0.0 11.6608 0.840528 -23.1956 -32.0076 25.3273 -57.4207 0.252337 7.12521 -0.0157104 29.988 -0.0667257 3.78676 0.504083 -17.5193 -10.2242 0.0 0.0 0.0 -4.54037 -7.93214 8.36756 -23.2489 0.24293 3.53504 36.9916 20.2769 -4.74701 -38.2273 0.0 0.0 -0.0 0.0 -0.0 37.561 -3.32177 -2.95926 -16.6554 -0.320466 -2.52686 -10.1623 11.7872 -1.61767 3.1411 -0.0 -0.0 0.0 0.0 0.0 
